<mxfile host="app.diagrams.net" modified="2023-03-24T11:44:55.076Z" agent="Mozilla/5.0 (Windows NT 10.0; Win64; x64) AppleWebKit/537.36 (KHTML, like Gecko) Chrome/111.0.0.0 Safari/537.36" etag="3rhBc_SZxY46oVumOZEP" version="21.1.0" type="github">
  <diagram id="prtHgNgQTEPvFCAcTncT" name="Page-1">
    <mxGraphModel dx="1803" dy="657" grid="1" gridSize="10" guides="1" tooltips="1" connect="1" arrows="1" fold="1" page="1" pageScale="1" pageWidth="827" pageHeight="1169" math="0" shadow="0">
      <root>
        <mxCell id="0" />
        <mxCell id="1" parent="0" />
        <mxCell id="ZB7MQ0_9RwX-2OkOB3dx-78" value="" style="rounded=0;whiteSpace=wrap;html=1;" parent="1" vertex="1">
          <mxGeometry x="100" y="20" width="1480" height="40" as="geometry" />
        </mxCell>
        <mxCell id="ZB7MQ0_9RwX-2OkOB3dx-80" value="" style="rounded=0;whiteSpace=wrap;html=1;" parent="1" vertex="1">
          <mxGeometry x="50" y="60" width="50" height="1570" as="geometry" />
        </mxCell>
        <mxCell id="ZB7MQ0_9RwX-2OkOB3dx-87" value="数&lt;br&gt;据&lt;br&gt;服&lt;br&gt;务&lt;br&gt;后&lt;br&gt;端" style="rounded=0;whiteSpace=wrap;html=1;fillColor=#cce5ff;strokeColor=#36393d;" parent="1" vertex="1">
          <mxGeometry x="50" y="500" width="50" height="349.37" as="geometry" />
        </mxCell>
        <mxCell id="ZB7MQ0_9RwX-2OkOB3dx-88" value="ApiSix&lt;br&gt;管&lt;br&gt;理&lt;br&gt;平&lt;br&gt;台&lt;br&gt;服&lt;br&gt;务" style="rounded=0;whiteSpace=wrap;html=1;fillColor=#ffcc99;strokeColor=#36393d;" parent="1" vertex="1">
          <mxGeometry x="50" y="850" width="50" height="390" as="geometry" />
        </mxCell>
        <mxCell id="ZB7MQ0_9RwX-2OkOB3dx-89" value="ApiSix&lt;br&gt;服&lt;br&gt;务" style="rounded=0;whiteSpace=wrap;html=1;fillColor=#cdeb8b;strokeColor=#36393d;" parent="1" vertex="1">
          <mxGeometry x="50" y="1240" width="50" height="390" as="geometry" />
        </mxCell>
        <mxCell id="ZB7MQ0_9RwX-2OkOB3dx-172" style="edgeStyle=orthogonalEdgeStyle;rounded=0;orthogonalLoop=1;jettySize=auto;html=1;exitX=0.5;exitY=1;exitDx=0;exitDy=0;" parent="1" edge="1">
          <mxGeometry relative="1" as="geometry">
            <mxPoint x="209.8800000000001" y="921.25" as="sourcePoint" />
            <mxPoint x="209.8800000000001" y="921.25" as="targetPoint" />
          </mxGeometry>
        </mxCell>
        <mxCell id="ZB7MQ0_9RwX-2OkOB3dx-173" value="存入DB" style="whiteSpace=wrap;html=1;rounded=1;glass=0;shadow=0;fillColor=#f8cecc;strokeColor=#b85450;" parent="1" vertex="1">
          <mxGeometry x="142.99" y="1025" width="133.75" height="56.25" as="geometry" />
        </mxCell>
        <mxCell id="ZB7MQ0_9RwX-2OkOB3dx-208" value="" style="edgeStyle=orthogonalEdgeStyle;rounded=0;orthogonalLoop=1;jettySize=auto;html=1;entryX=0.5;entryY=0;entryDx=0;entryDy=0;exitX=0.5;exitY=1;exitDx=0;exitDy=0;" parent="1" source="ZB7MQ0_9RwX-2OkOB3dx-173" target="ZB7MQ0_9RwX-2OkOB3dx-206" edge="1">
          <mxGeometry relative="1" as="geometry">
            <mxPoint x="209.875" y="1285.6200000000001" as="targetPoint" />
            <mxPoint x="209.86500000000024" y="1204.25" as="sourcePoint" />
          </mxGeometry>
        </mxCell>
        <mxCell id="ZB7MQ0_9RwX-2OkOB3dx-202" value="管理员" style="rounded=0;whiteSpace=wrap;html=1;fillColor=#eeeeee;strokeColor=#36393d;" parent="1" vertex="1">
          <mxGeometry x="100" y="20" width="920" height="40" as="geometry" />
        </mxCell>
        <mxCell id="ZB7MQ0_9RwX-2OkOB3dx-204" value="第三方" style="rounded=0;whiteSpace=wrap;html=1;fillColor=#f9f7ed;strokeColor=#36393d;" parent="1" vertex="1">
          <mxGeometry x="1020" y="20" width="560" height="40" as="geometry" />
        </mxCell>
        <mxCell id="ZB7MQ0_9RwX-2OkOB3dx-206" value="存入ETCD" style="whiteSpace=wrap;html=1;rounded=0;fillColor=#f8cecc;strokeColor=#b85450;" parent="1" vertex="1">
          <mxGeometry x="148.29999999999995" y="1335" width="123.13" height="80" as="geometry" />
        </mxCell>
        <mxCell id="ZB7MQ0_9RwX-2OkOB3dx-211" value="" style="endArrow=none;html=1;rounded=0;exitX=0;exitY=0;exitDx=0;exitDy=0;" parent="1" source="CbXir0T19oJh18a0q4G_-51" edge="1">
          <mxGeometry width="50" height="50" relative="1" as="geometry">
            <mxPoint x="1020" y="1630" as="sourcePoint" />
            <mxPoint x="1020" y="60" as="targetPoint" />
          </mxGeometry>
        </mxCell>
        <mxCell id="ZB7MQ0_9RwX-2OkOB3dx-213" value="" style="endArrow=none;html=1;rounded=0;fillColor=#1ba1e2;strokeColor=#006EAF;" parent="1" edge="1">
          <mxGeometry width="50" height="50" relative="1" as="geometry">
            <mxPoint x="100" y="1240" as="sourcePoint" />
            <mxPoint x="1570" y="1240" as="targetPoint" />
          </mxGeometry>
        </mxCell>
        <mxCell id="ZB7MQ0_9RwX-2OkOB3dx-214" value="" style="endArrow=none;html=1;rounded=0;fillColor=#1ba1e2;strokeColor=#006EAF;" parent="1" edge="1">
          <mxGeometry width="50" height="50" relative="1" as="geometry">
            <mxPoint x="100" y="850" as="sourcePoint" />
            <mxPoint x="1570" y="840" as="targetPoint" />
          </mxGeometry>
        </mxCell>
        <mxCell id="ZB7MQ0_9RwX-2OkOB3dx-217" value="" style="rounded=0;whiteSpace=wrap;html=1;" parent="1" vertex="1">
          <mxGeometry x="100" y="1690" width="1470" height="40" as="geometry" />
        </mxCell>
        <mxCell id="ZB7MQ0_9RwX-2OkOB3dx-224" value="" style="edgeStyle=orthogonalEdgeStyle;rounded=0;orthogonalLoop=1;jettySize=auto;html=1;" parent="1" source="ZB7MQ0_9RwX-2OkOB3dx-222" target="ZB7MQ0_9RwX-2OkOB3dx-223" edge="1">
          <mxGeometry relative="1" as="geometry" />
        </mxCell>
        <mxCell id="ZB7MQ0_9RwX-2OkOB3dx-222" value="访问路由" style="rounded=1;whiteSpace=wrap;html=1;fillColor=#dae8fc;strokeColor=#6c8ebf;gradientColor=none;glass=0;shadow=0;" parent="1" vertex="1">
          <mxGeometry x="1170.63" y="1590" width="110" height="20" as="geometry" />
        </mxCell>
        <mxCell id="ZB7MQ0_9RwX-2OkOB3dx-226" value="" style="edgeStyle=orthogonalEdgeStyle;rounded=0;orthogonalLoop=1;jettySize=auto;html=1;" parent="1" source="ZB7MQ0_9RwX-2OkOB3dx-223" target="ZB7MQ0_9RwX-2OkOB3dx-225" edge="1">
          <mxGeometry relative="1" as="geometry" />
        </mxCell>
        <mxCell id="ZB7MQ0_9RwX-2OkOB3dx-252" value="" style="edgeStyle=orthogonalEdgeStyle;rounded=0;orthogonalLoop=1;jettySize=auto;html=1;" parent="1" source="ZB7MQ0_9RwX-2OkOB3dx-223" target="ZB7MQ0_9RwX-2OkOB3dx-251" edge="1">
          <mxGeometry relative="1" as="geometry" />
        </mxCell>
        <mxCell id="ZB7MQ0_9RwX-2OkOB3dx-223" value="校验路由是否存在" style="whiteSpace=wrap;html=1;rounded=1;glass=0;shadow=0;" parent="1" vertex="1">
          <mxGeometry x="1173.1299999999999" y="1521" width="105" height="40" as="geometry" />
        </mxCell>
        <mxCell id="ZB7MQ0_9RwX-2OkOB3dx-228" value="" style="edgeStyle=orthogonalEdgeStyle;rounded=0;orthogonalLoop=1;jettySize=auto;html=1;" parent="1" source="ZB7MQ0_9RwX-2OkOB3dx-225" target="ZB7MQ0_9RwX-2OkOB3dx-227" edge="1">
          <mxGeometry relative="1" as="geometry" />
        </mxCell>
        <mxCell id="ZB7MQ0_9RwX-2OkOB3dx-250" value="" style="edgeStyle=orthogonalEdgeStyle;rounded=0;orthogonalLoop=1;jettySize=auto;html=1;" parent="1" source="ZB7MQ0_9RwX-2OkOB3dx-225" target="ZB7MQ0_9RwX-2OkOB3dx-249" edge="1">
          <mxGeometry relative="1" as="geometry" />
        </mxCell>
        <mxCell id="ZB7MQ0_9RwX-2OkOB3dx-225" value="校验权限" style="whiteSpace=wrap;html=1;rounded=1;glass=0;shadow=0;" parent="1" vertex="1">
          <mxGeometry x="1172.5" y="1451" width="107.5" height="39" as="geometry" />
        </mxCell>
        <mxCell id="ZB7MQ0_9RwX-2OkOB3dx-230" value="" style="edgeStyle=orthogonalEdgeStyle;rounded=0;orthogonalLoop=1;jettySize=auto;html=1;" parent="1" source="ZB7MQ0_9RwX-2OkOB3dx-227" target="ZB7MQ0_9RwX-2OkOB3dx-229" edge="1">
          <mxGeometry relative="1" as="geometry" />
        </mxCell>
        <mxCell id="ZB7MQ0_9RwX-2OkOB3dx-248" value="" style="edgeStyle=orthogonalEdgeStyle;rounded=0;orthogonalLoop=1;jettySize=auto;html=1;" parent="1" source="ZB7MQ0_9RwX-2OkOB3dx-227" target="ZB7MQ0_9RwX-2OkOB3dx-247" edge="1">
          <mxGeometry relative="1" as="geometry" />
        </mxCell>
        <mxCell id="ZB7MQ0_9RwX-2OkOB3dx-227" value="限流...等" style="whiteSpace=wrap;html=1;rounded=1;glass=0;shadow=0;" parent="1" vertex="1">
          <mxGeometry x="1173.13" y="1375" width="106.25" height="40" as="geometry" />
        </mxCell>
        <mxCell id="ZB7MQ0_9RwX-2OkOB3dx-234" value="" style="edgeStyle=orthogonalEdgeStyle;rounded=0;orthogonalLoop=1;jettySize=auto;html=1;" parent="1" source="ZB7MQ0_9RwX-2OkOB3dx-229" target="ZB7MQ0_9RwX-2OkOB3dx-233" edge="1">
          <mxGeometry relative="1" as="geometry" />
        </mxCell>
        <mxCell id="ZB7MQ0_9RwX-2OkOB3dx-239" value="" style="edgeStyle=orthogonalEdgeStyle;rounded=0;orthogonalLoop=1;jettySize=auto;html=1;entryX=0.5;entryY=1;entryDx=0;entryDy=0;" parent="1" source="ZB7MQ0_9RwX-2OkOB3dx-229" target="ZB7MQ0_9RwX-2OkOB3dx-237" edge="1">
          <mxGeometry relative="1" as="geometry">
            <mxPoint x="1370.0303030303035" y="1229" as="targetPoint" />
          </mxGeometry>
        </mxCell>
        <mxCell id="ZB7MQ0_9RwX-2OkOB3dx-229" value="找到服务对应的上游,负载到服务接口" style="whiteSpace=wrap;html=1;rounded=1;glass=0;shadow=0;" parent="1" vertex="1">
          <mxGeometry x="1171.57" y="1295" width="109.38" height="40" as="geometry" />
        </mxCell>
        <mxCell id="ZB7MQ0_9RwX-2OkOB3dx-236" value="" style="edgeStyle=orthogonalEdgeStyle;rounded=0;orthogonalLoop=1;jettySize=auto;html=1;" parent="1" source="ZB7MQ0_9RwX-2OkOB3dx-233" target="ZB7MQ0_9RwX-2OkOB3dx-235" edge="1">
          <mxGeometry relative="1" as="geometry" />
        </mxCell>
        <mxCell id="ZB7MQ0_9RwX-2OkOB3dx-233" value="数据服务查询数据口&lt;br&gt;获取请求头apikye中的密钥,定位消费者" style="whiteSpace=wrap;html=1;rounded=1;glass=0;shadow=0;fillColor=#f8cecc;strokeColor=#b85450;" parent="1" vertex="1">
          <mxGeometry x="1165.6250000000002" y="740" width="120" height="60" as="geometry" />
        </mxCell>
        <mxCell id="ZB7MQ0_9RwX-2OkOB3dx-241" value="" style="edgeStyle=orthogonalEdgeStyle;rounded=0;orthogonalLoop=1;jettySize=auto;html=1;" parent="1" source="ZB7MQ0_9RwX-2OkOB3dx-235" target="ZB7MQ0_9RwX-2OkOB3dx-240" edge="1">
          <mxGeometry relative="1" as="geometry" />
        </mxCell>
        <mxCell id="ZB7MQ0_9RwX-2OkOB3dx-235" value="解析参数获取SQL模板配置id,根据id查询到模板信息,根据参数组装查询数据" style="whiteSpace=wrap;html=1;rounded=1;glass=0;shadow=0;fillColor=#f8cecc;strokeColor=#b85450;" parent="1" vertex="1">
          <mxGeometry x="1158.79" y="585" width="133.66" height="100" as="geometry" />
        </mxCell>
        <mxCell id="ZB7MQ0_9RwX-2OkOB3dx-237" value="其他接口...." style="whiteSpace=wrap;html=1;rounded=1;glass=0;shadow=0;fillColor=#f8cecc;strokeColor=#b85450;" parent="1" vertex="1">
          <mxGeometry x="1440.005" y="740" width="120" height="60" as="geometry" />
        </mxCell>
        <mxCell id="ZB7MQ0_9RwX-2OkOB3dx-240" value="查询CK" style="whiteSpace=wrap;html=1;rounded=1;glass=0;shadow=0;fillColor=#f8cecc;strokeColor=#b85450;" parent="1" vertex="1">
          <mxGeometry x="1160.64" y="510" width="131.21" height="40" as="geometry" />
        </mxCell>
        <mxCell id="ZB7MQ0_9RwX-2OkOB3dx-242" value="" style="endArrow=none;html=1;rounded=0;exitX=1;exitY=0;exitDx=0;exitDy=0;" parent="1" source="CbXir0T19oJh18a0q4G_-51" edge="1">
          <mxGeometry width="50" height="50" relative="1" as="geometry">
            <mxPoint x="1570" y="1680" as="sourcePoint" />
            <mxPoint x="1580" y="60" as="targetPoint" />
          </mxGeometry>
        </mxCell>
        <mxCell id="ZB7MQ0_9RwX-2OkOB3dx-247" value="HTTP 503" style="shape=parallelogram;perimeter=parallelogramPerimeter;whiteSpace=wrap;html=1;fixedSize=1;rounded=1;glass=0;shadow=0;fillColor=#e51400;fontColor=#ffffff;strokeColor=#B20000;" parent="1" vertex="1">
          <mxGeometry x="1370" y="1376.25" width="147.49" height="37.5" as="geometry" />
        </mxCell>
        <mxCell id="ZB7MQ0_9RwX-2OkOB3dx-249" value="HTTP 401" style="shape=parallelogram;perimeter=parallelogramPerimeter;whiteSpace=wrap;html=1;fixedSize=1;rounded=1;glass=0;shadow=0;fillColor=#e51400;fontColor=#ffffff;strokeColor=#B20000;" parent="1" vertex="1">
          <mxGeometry x="1370" y="1451" width="147.49" height="37.5" as="geometry" />
        </mxCell>
        <mxCell id="ZB7MQ0_9RwX-2OkOB3dx-251" value="HTTP 404" style="shape=parallelogram;perimeter=parallelogramPerimeter;whiteSpace=wrap;html=1;fixedSize=1;rounded=1;glass=0;shadow=0;fillColor=#e51400;fontColor=#ffffff;strokeColor=#B20000;" parent="1" vertex="1">
          <mxGeometry x="1370" y="1522.25" width="147.49" height="37.5" as="geometry" />
        </mxCell>
        <mxCell id="CbXir0T19oJh18a0q4G_-4" value="" style="endArrow=none;html=1;rounded=0;fillColor=#1ba1e2;strokeColor=#006EAF;" edge="1" parent="1">
          <mxGeometry width="50" height="50" relative="1" as="geometry">
            <mxPoint x="100" y="500" as="sourcePoint" />
            <mxPoint x="1580" y="500" as="targetPoint" />
          </mxGeometry>
        </mxCell>
        <mxCell id="CbXir0T19oJh18a0q4G_-6" value="数&lt;br&gt;据&lt;br&gt;服&lt;br&gt;务&lt;br&gt;前&lt;br&gt;端" style="rounded=0;whiteSpace=wrap;html=1;fillColor=#d5e8d4;strokeColor=#82b366;" vertex="1" parent="1">
          <mxGeometry x="50" y="60" width="50" height="440" as="geometry" />
        </mxCell>
        <mxCell id="CbXir0T19oJh18a0q4G_-39" value="" style="edgeStyle=orthogonalEdgeStyle;rounded=0;orthogonalLoop=1;jettySize=auto;html=1;" edge="1" parent="1" source="CbXir0T19oJh18a0q4G_-34" target="CbXir0T19oJh18a0q4G_-47">
          <mxGeometry relative="1" as="geometry">
            <mxPoint x="183" y="305" as="targetPoint" />
            <Array as="points">
              <mxPoint x="203" y="705" />
              <mxPoint x="203" y="705" />
            </Array>
          </mxGeometry>
        </mxCell>
        <mxCell id="CbXir0T19oJh18a0q4G_-49" value="表单填写" style="edgeLabel;html=1;align=center;verticalAlign=middle;resizable=0;points=[];" vertex="1" connectable="0" parent="CbXir0T19oJh18a0q4G_-39">
          <mxGeometry x="-0.4298" y="-2" relative="1" as="geometry">
            <mxPoint as="offset" />
          </mxGeometry>
        </mxCell>
        <mxCell id="CbXir0T19oJh18a0q4G_-34" value="添加消费者" style="rounded=1;whiteSpace=wrap;html=1;fillColor=#dae8fc;strokeColor=#6c8ebf;gradientColor=none;glass=0;shadow=0;" vertex="1" parent="1">
          <mxGeometry x="130" y="115" width="110" height="20" as="geometry" />
        </mxCell>
        <mxCell id="CbXir0T19oJh18a0q4G_-45" value="消费者名&lt;br style=&quot;border-color: var(--border-color);&quot;&gt;密钥" style="shape=card;whiteSpace=wrap;html=1;" vertex="1" parent="1">
          <mxGeometry x="220" y="190" width="80" height="100" as="geometry" />
        </mxCell>
        <mxCell id="CbXir0T19oJh18a0q4G_-48" value="" style="edgeStyle=orthogonalEdgeStyle;rounded=0;orthogonalLoop=1;jettySize=auto;html=1;" edge="1" parent="1" source="CbXir0T19oJh18a0q4G_-47" target="ZB7MQ0_9RwX-2OkOB3dx-173">
          <mxGeometry relative="1" as="geometry">
            <Array as="points">
              <mxPoint x="203" y="975" />
              <mxPoint x="203" y="975" />
            </Array>
          </mxGeometry>
        </mxCell>
        <mxCell id="CbXir0T19oJh18a0q4G_-47" value="添加消费者" style="rounded=1;whiteSpace=wrap;html=1;fillColor=#dae8fc;strokeColor=#6c8ebf;gradientColor=none;glass=0;shadow=0;" vertex="1" parent="1">
          <mxGeometry x="154.87" y="935" width="110" height="20" as="geometry" />
        </mxCell>
        <mxCell id="CbXir0T19oJh18a0q4G_-50" value="管理员" style="rounded=0;whiteSpace=wrap;html=1;fillColor=#eeeeee;strokeColor=#36393d;" vertex="1" parent="1">
          <mxGeometry x="100" y="1690" width="920" height="40" as="geometry" />
        </mxCell>
        <mxCell id="CbXir0T19oJh18a0q4G_-51" value="第三方" style="rounded=0;whiteSpace=wrap;html=1;fillColor=#f9f7ed;strokeColor=#36393d;" vertex="1" parent="1">
          <mxGeometry x="1020" y="1690" width="550" height="40" as="geometry" />
        </mxCell>
        <mxCell id="CbXir0T19oJh18a0q4G_-54" value="第三方调试" style="rounded=0;whiteSpace=wrap;html=1;" vertex="1" parent="1">
          <mxGeometry x="50" y="1630" width="50" height="60" as="geometry" />
        </mxCell>
        <mxCell id="CbXir0T19oJh18a0q4G_-55" value="" style="endArrow=none;html=1;rounded=0;fillColor=#1ba1e2;strokeColor=#006EAF;" edge="1" parent="1">
          <mxGeometry width="50" height="50" relative="1" as="geometry">
            <mxPoint x="47.49" y="1630" as="sourcePoint" />
            <mxPoint x="1570" y="1630" as="targetPoint" />
          </mxGeometry>
        </mxCell>
        <mxCell id="CbXir0T19oJh18a0q4G_-62" value="" style="edgeStyle=orthogonalEdgeStyle;rounded=0;orthogonalLoop=1;jettySize=auto;html=1;entryX=0.5;entryY=1;entryDx=0;entryDy=0;" edge="1" parent="1" source="CbXir0T19oJh18a0q4G_-56" target="ZB7MQ0_9RwX-2OkOB3dx-222">
          <mxGeometry relative="1" as="geometry">
            <mxPoint x="1108.8333333333335" y="1580" as="targetPoint" />
          </mxGeometry>
        </mxCell>
        <mxCell id="CbXir0T19oJh18a0q4G_-56" value="程序、工具...调用" style="whiteSpace=wrap;html=1;" vertex="1" parent="1">
          <mxGeometry x="1169.3899999999999" y="1640" width="113.74" height="40" as="geometry" />
        </mxCell>
        <mxCell id="CbXir0T19oJh18a0q4G_-182" value="" style="edgeStyle=orthogonalEdgeStyle;rounded=0;orthogonalLoop=1;jettySize=auto;html=1;exitX=1;exitY=0;exitDx=0;exitDy=0;" edge="1" parent="1" source="CbXir0T19oJh18a0q4G_-186">
          <mxGeometry relative="1" as="geometry">
            <Array as="points">
              <mxPoint x="535" y="329" />
              <mxPoint x="634" y="329" />
            </Array>
            <mxPoint x="634" y="355" as="targetPoint" />
          </mxGeometry>
        </mxCell>
        <mxCell id="CbXir0T19oJh18a0q4G_-183" value="向导" style="edgeLabel;html=1;align=center;verticalAlign=middle;resizable=0;points=[];" vertex="1" connectable="0" parent="CbXir0T19oJh18a0q4G_-182">
          <mxGeometry x="-0.0772" y="1" relative="1" as="geometry">
            <mxPoint y="-1" as="offset" />
          </mxGeometry>
        </mxCell>
        <mxCell id="CbXir0T19oJh18a0q4G_-184" value="" style="edgeStyle=orthogonalEdgeStyle;rounded=0;orthogonalLoop=1;jettySize=auto;html=1;entryX=0.5;entryY=0;entryDx=0;entryDy=0;" edge="1" parent="1" source="CbXir0T19oJh18a0q4G_-186" target="CbXir0T19oJh18a0q4G_-214">
          <mxGeometry relative="1" as="geometry">
            <mxPoint x="364" y="315" as="targetPoint" />
            <Array as="points">
              <mxPoint x="420" y="325" />
            </Array>
          </mxGeometry>
        </mxCell>
        <mxCell id="CbXir0T19oJh18a0q4G_-185" value="SQL" style="edgeLabel;html=1;align=center;verticalAlign=middle;resizable=0;points=[];" vertex="1" connectable="0" parent="CbXir0T19oJh18a0q4G_-184">
          <mxGeometry x="-0.2326" y="-1" relative="1" as="geometry">
            <mxPoint as="offset" />
          </mxGeometry>
        </mxCell>
        <mxCell id="CbXir0T19oJh18a0q4G_-186" value="&lt;font face=&quot;Comic Sans MS&quot;&gt;判断模式&lt;/font&gt;" style="rhombus;whiteSpace=wrap;html=1;rounded=0;" vertex="1" parent="1">
          <mxGeometry x="490" y="309.37" width="60" height="70" as="geometry" />
        </mxCell>
        <mxCell id="CbXir0T19oJh18a0q4G_-187" value="" style="edgeStyle=orthogonalEdgeStyle;rounded=0;orthogonalLoop=1;jettySize=auto;html=1;" edge="1" parent="1" target="CbXir0T19oJh18a0q4G_-191">
          <mxGeometry relative="1" as="geometry">
            <mxPoint x="420" y="384.3699999999999" as="sourcePoint" />
          </mxGeometry>
        </mxCell>
        <mxCell id="CbXir0T19oJh18a0q4G_-188" value="" style="edgeStyle=orthogonalEdgeStyle;rounded=0;orthogonalLoop=1;jettySize=auto;html=1;exitX=0.5;exitY=1;exitDx=0;exitDy=0;" edge="1" parent="1" source="CbXir0T19oJh18a0q4G_-215">
          <mxGeometry relative="1" as="geometry">
            <mxPoint x="630" y="459.37" as="targetPoint" />
            <mxPoint x="630" y="425" as="sourcePoint" />
          </mxGeometry>
        </mxCell>
        <mxCell id="CbXir0T19oJh18a0q4G_-189" value="填写对外url&lt;br&gt;选择消费者" style="ellipse;shape=cloud;whiteSpace=wrap;html=1;" vertex="1" parent="1">
          <mxGeometry x="580" y="85" width="120" height="80" as="geometry" />
        </mxCell>
        <mxCell id="CbXir0T19oJh18a0q4G_-190" value="" style="edgeStyle=orthogonalEdgeStyle;rounded=0;orthogonalLoop=1;jettySize=auto;html=1;" edge="1" parent="1" source="CbXir0T19oJh18a0q4G_-191" target="CbXir0T19oJh18a0q4G_-196">
          <mxGeometry relative="1" as="geometry" />
        </mxCell>
        <mxCell id="CbXir0T19oJh18a0q4G_-191" value="填写SQL" style="whiteSpace=wrap;html=1;rounded=0;" vertex="1" parent="1">
          <mxGeometry x="360" y="459.37" width="120" height="35" as="geometry" />
        </mxCell>
        <mxCell id="CbXir0T19oJh18a0q4G_-192" value="" style="edgeStyle=orthogonalEdgeStyle;rounded=0;orthogonalLoop=1;jettySize=auto;html=1;" edge="1" parent="1">
          <mxGeometry relative="1" as="geometry">
            <mxPoint x="630" y="494.37" as="sourcePoint" />
            <mxPoint x="630" y="561.87" as="targetPoint" />
          </mxGeometry>
        </mxCell>
        <mxCell id="CbXir0T19oJh18a0q4G_-193" value="选择标签和条件" style="whiteSpace=wrap;html=1;rounded=0;" vertex="1" parent="1">
          <mxGeometry x="575" y="459.37" width="120" height="35" as="geometry" />
        </mxCell>
        <mxCell id="CbXir0T19oJh18a0q4G_-194" value="" style="edgeStyle=orthogonalEdgeStyle;rounded=0;orthogonalLoop=1;jettySize=auto;html=1;entryX=0.468;entryY=1.046;entryDx=0;entryDy=0;entryPerimeter=0;" edge="1" parent="1" source="CbXir0T19oJh18a0q4G_-196" target="CbXir0T19oJh18a0q4G_-218">
          <mxGeometry relative="1" as="geometry">
            <mxPoint x="814" y="425" as="targetPoint" />
            <Array as="points">
              <mxPoint x="420" y="675" />
              <mxPoint x="775" y="675" />
              <mxPoint x="775" y="408" />
            </Array>
          </mxGeometry>
        </mxCell>
        <mxCell id="CbXir0T19oJh18a0q4G_-195" value="返回给前端请求,参数和响应参数" style="edgeLabel;html=1;align=center;verticalAlign=middle;resizable=0;points=[];" vertex="1" connectable="0" parent="CbXir0T19oJh18a0q4G_-194">
          <mxGeometry x="-0.4208" y="-1" relative="1" as="geometry">
            <mxPoint as="offset" />
          </mxGeometry>
        </mxCell>
        <mxCell id="CbXir0T19oJh18a0q4G_-196" value="后端解析SQL" style="whiteSpace=wrap;html=1;rounded=0;fillColor=#f8cecc;strokeColor=#b85450;" vertex="1" parent="1">
          <mxGeometry x="360" y="561.87" width="120" height="32.5" as="geometry" />
        </mxCell>
        <mxCell id="CbXir0T19oJh18a0q4G_-197" value="" style="edgeStyle=orthogonalEdgeStyle;rounded=0;orthogonalLoop=1;jettySize=auto;html=1;" edge="1" parent="1" source="CbXir0T19oJh18a0q4G_-199" target="CbXir0T19oJh18a0q4G_-196">
          <mxGeometry relative="1" as="geometry" />
        </mxCell>
        <mxCell id="CbXir0T19oJh18a0q4G_-198" value="" style="edgeStyle=orthogonalEdgeStyle;rounded=0;orthogonalLoop=1;jettySize=auto;html=1;" edge="1" parent="1" source="CbXir0T19oJh18a0q4G_-199" target="CbXir0T19oJh18a0q4G_-196">
          <mxGeometry relative="1" as="geometry" />
        </mxCell>
        <mxCell id="CbXir0T19oJh18a0q4G_-199" value="后端解析生成SQL" style="whiteSpace=wrap;html=1;rounded=0;fillColor=#f8cecc;strokeColor=#b85450;" vertex="1" parent="1">
          <mxGeometry x="570" y="561.87" width="120" height="32.5" as="geometry" />
        </mxCell>
        <mxCell id="CbXir0T19oJh18a0q4G_-200" value="添加API" style="rounded=1;whiteSpace=wrap;html=1;fillColor=#dae8fc;strokeColor=#6c8ebf;gradientColor=none;glass=0;shadow=0;" vertex="1" parent="1">
          <mxGeometry x="465" y="115" width="110" height="20" as="geometry" />
        </mxCell>
        <mxCell id="CbXir0T19oJh18a0q4G_-201" value="复用方法" style="text;html=1;align=center;verticalAlign=middle;resizable=0;points=[];autosize=1;strokeColor=none;fillColor=none;" vertex="1" parent="1">
          <mxGeometry x="490" y="554.37" width="70" height="30" as="geometry" />
        </mxCell>
        <mxCell id="CbXir0T19oJh18a0q4G_-202" value="" style="edgeStyle=orthogonalEdgeStyle;rounded=0;orthogonalLoop=1;jettySize=auto;html=1;" edge="1" parent="1" source="CbXir0T19oJh18a0q4G_-203" target="CbXir0T19oJh18a0q4G_-211">
          <mxGeometry relative="1" as="geometry" />
        </mxCell>
        <mxCell id="CbXir0T19oJh18a0q4G_-203" value="存入DB,调用Apisix管理平台&lt;span style=&quot;border-color: var(--border-color); text-align: left; background-color: initial;&quot; class=&quot;custom-cursor-default-hover&quot;&gt;服务保存路由&lt;/span&gt;" style="whiteSpace=wrap;html=1;rounded=0;fillColor=#f8cecc;strokeColor=#b85450;" vertex="1" parent="1">
          <mxGeometry x="880" y="740" width="120" height="60" as="geometry" />
        </mxCell>
        <mxCell id="CbXir0T19oJh18a0q4G_-204" value="存入ETCD" style="whiteSpace=wrap;html=1;rounded=0;fillColor=#f8cecc;strokeColor=#b85450;" vertex="1" parent="1">
          <mxGeometry x="880" y="1350" width="120" height="75" as="geometry" />
        </mxCell>
        <mxCell id="CbXir0T19oJh18a0q4G_-209" value="表单填写" style="edgeStyle=orthogonalEdgeStyle;rounded=0;orthogonalLoop=1;jettySize=auto;html=1;exitX=0.5;exitY=1;exitDx=0;exitDy=0;" edge="1" parent="1" source="CbXir0T19oJh18a0q4G_-200" target="CbXir0T19oJh18a0q4G_-186">
          <mxGeometry x="-0.0021" relative="1" as="geometry">
            <mxPoint x="520" y="255" as="sourcePoint" />
            <Array as="points">
              <mxPoint x="520" y="225" />
              <mxPoint x="520" y="225" />
            </Array>
            <mxPoint as="offset" />
          </mxGeometry>
        </mxCell>
        <mxCell id="CbXir0T19oJh18a0q4G_-210" value="" style="edgeStyle=orthogonalEdgeStyle;rounded=0;orthogonalLoop=1;jettySize=auto;html=1;" edge="1" parent="1" source="CbXir0T19oJh18a0q4G_-211" target="CbXir0T19oJh18a0q4G_-213">
          <mxGeometry relative="1" as="geometry" />
        </mxCell>
        <mxCell id="CbXir0T19oJh18a0q4G_-211" value="添加路由" style="rounded=1;whiteSpace=wrap;html=1;fillColor=#dae8fc;strokeColor=#6c8ebf;gradientColor=none;glass=0;shadow=0;" vertex="1" parent="1">
          <mxGeometry x="885" y="940" width="110" height="20" as="geometry" />
        </mxCell>
        <mxCell id="CbXir0T19oJh18a0q4G_-212" value="" style="edgeStyle=orthogonalEdgeStyle;rounded=0;orthogonalLoop=1;jettySize=auto;html=1;entryX=0.5;entryY=0;entryDx=0;entryDy=0;" edge="1" parent="1" source="CbXir0T19oJh18a0q4G_-213" target="CbXir0T19oJh18a0q4G_-204">
          <mxGeometry relative="1" as="geometry">
            <mxPoint x="661" y="1260" as="targetPoint" />
          </mxGeometry>
        </mxCell>
        <mxCell id="CbXir0T19oJh18a0q4G_-213" value="存入DB" style="whiteSpace=wrap;html=1;rounded=1;glass=0;shadow=0;fillColor=#f8cecc;strokeColor=#b85450;" vertex="1" parent="1">
          <mxGeometry x="880" y="1025" width="120" height="60" as="geometry" />
        </mxCell>
        <mxCell id="CbXir0T19oJh18a0q4G_-214" value="选择库、表&lt;br&gt;(类似即席查询)" style="whiteSpace=wrap;html=1;rounded=0;" vertex="1" parent="1">
          <mxGeometry x="360" y="355" width="120" height="60" as="geometry" />
        </mxCell>
        <mxCell id="CbXir0T19oJh18a0q4G_-215" value="选择库、表&lt;br&gt;(类似标签)" style="whiteSpace=wrap;html=1;rounded=0;" vertex="1" parent="1">
          <mxGeometry x="570" y="355" width="120" height="60" as="geometry" />
        </mxCell>
        <mxCell id="CbXir0T19oJh18a0q4G_-216" value="name&lt;br style=&quot;border-color: var(--border-color);&quot;&gt;url&lt;br style=&quot;border-color: var(--border-color);&quot;&gt;消费者&lt;br style=&quot;border-color: var(--border-color);&quot;&gt;请求方式" style="shape=card;whiteSpace=wrap;html=1;" vertex="1" parent="1">
          <mxGeometry x="548" y="175" width="80" height="100" as="geometry" />
        </mxCell>
        <mxCell id="CbXir0T19oJh18a0q4G_-217" value="" style="edgeStyle=orthogonalEdgeStyle;rounded=0;orthogonalLoop=1;jettySize=auto;html=1;entryX=0.5;entryY=0;entryDx=0;entryDy=0;exitX=1;exitY=0.5;exitDx=0;exitDy=0;" edge="1" parent="1" source="CbXir0T19oJh18a0q4G_-218" target="CbXir0T19oJh18a0q4G_-203">
          <mxGeometry relative="1" as="geometry">
            <mxPoint x="920.021739130435" y="377.521739130435" as="targetPoint" />
          </mxGeometry>
        </mxCell>
        <mxCell id="CbXir0T19oJh18a0q4G_-225" value="发布" style="edgeLabel;html=1;align=center;verticalAlign=middle;resizable=0;points=[];" vertex="1" connectable="0" parent="CbXir0T19oJh18a0q4G_-217">
          <mxGeometry x="-0.305" relative="1" as="geometry">
            <mxPoint y="16" as="offset" />
          </mxGeometry>
        </mxCell>
        <mxCell id="CbXir0T19oJh18a0q4G_-218" value="请求参数,响应参数&lt;br&gt;注释类型等填写" style="rounded=0;whiteSpace=wrap;html=1;" vertex="1" parent="1">
          <mxGeometry x="724" y="350" width="110" height="55" as="geometry" />
        </mxCell>
        <mxCell id="CbXir0T19oJh18a0q4G_-220" value="根据SQL模板和参数&lt;br&gt;查询DB返回数据" style="whiteSpace=wrap;html=1;rounded=0;fillColor=#f8cecc;strokeColor=#b85450;" vertex="1" parent="1">
          <mxGeometry x="740" y="740" width="120" height="60" as="geometry" />
        </mxCell>
        <mxCell id="CbXir0T19oJh18a0q4G_-233" value="&lt;br style=&quot;border-color: var(--border-color);&quot;&gt;这边消费者名&lt;br style=&quot;border-color: var(--border-color);&quot;&gt;&lt;span style=&quot;border-color: var(--border-color);&quot;&gt;只能是英文且不能&lt;/span&gt;&lt;br style=&quot;border-color: var(--border-color);&quot;&gt;&lt;span style=&quot;border-color: var(--border-color); float: none; display: inline !important;&quot; class=&quot;custom-cursor-default-hover&quot;&gt;重复,如果需要扩展&lt;/span&gt;&lt;br style=&quot;border-color: var(--border-color);&quot;&gt;&lt;span style=&quot;border-color: var(--border-color); float: none; display: inline !important;&quot; class=&quot;custom-cursor-default-hover&quot;&gt;可以修改&lt;/span&gt;" style="ellipse;shape=cloud;whiteSpace=wrap;html=1;" vertex="1" parent="1">
          <mxGeometry x="240" y="75" width="140" height="100" as="geometry" />
        </mxCell>
        <mxCell id="CbXir0T19oJh18a0q4G_-234" style="edgeStyle=orthogonalEdgeStyle;rounded=0;orthogonalLoop=1;jettySize=auto;html=1;exitX=0.5;exitY=1;exitDx=0;exitDy=0;entryX=0.5;entryY=0;entryDx=0;entryDy=0;" edge="1" parent="1" source="CbXir0T19oJh18a0q4G_-211" target="CbXir0T19oJh18a0q4G_-211">
          <mxGeometry relative="1" as="geometry" />
        </mxCell>
        <mxCell id="CbXir0T19oJh18a0q4G_-237" value="" style="endArrow=classic;html=1;rounded=0;entryX=0.598;entryY=0.014;entryDx=0;entryDy=0;entryPerimeter=0;" edge="1" parent="1" target="CbXir0T19oJh18a0q4G_-220">
          <mxGeometry width="50" height="50" relative="1" as="geometry">
            <mxPoint x="810" y="410" as="sourcePoint" />
            <mxPoint x="860" y="360" as="targetPoint" />
          </mxGeometry>
        </mxCell>
        <mxCell id="CbXir0T19oJh18a0q4G_-238" value="测试" style="edgeLabel;html=1;align=center;verticalAlign=middle;resizable=0;points=[];" vertex="1" connectable="0" parent="CbXir0T19oJh18a0q4G_-237">
          <mxGeometry x="-0.7588" y="-1" relative="1" as="geometry">
            <mxPoint y="6" as="offset" />
          </mxGeometry>
        </mxCell>
      </root>
    </mxGraphModel>
  </diagram>
</mxfile>
